<svg width="32" height="32" viewBox="0 0 32 32" fill="none" xmlns="http://www.w3.org/2000/svg">
<rect width="32" height="32" fill="black"/>
<path d="M5.37784 14.0455V11.8182H14.2273V14.0455H11.1648V22H8.44034V14.0455H5.37784ZM14.5676 22V11.8182H18.9625C19.7181 11.8182 20.3794 11.9557 20.9461 12.2308C21.5129 12.5059 21.9537 12.902 22.2686 13.419C22.5834 13.9361 22.7409 14.5559 22.7409 15.2784C22.7409 16.0076 22.5785 16.6224 22.2537 17.1229C21.9322 17.6233 21.4797 18.0012 20.8964 18.2564C20.3164 18.5116 19.6386 18.6392 18.863 18.6392H16.238V16.4915H18.3062C18.631 16.4915 18.9078 16.4517 19.1365 16.3722C19.3685 16.2893 19.5458 16.1584 19.6684 15.9794C19.7944 15.8004 19.8574 15.5668 19.8574 15.2784C19.8574 14.9867 19.7944 14.7498 19.6684 14.5675C19.5458 14.3819 19.3685 14.246 19.1365 14.1598C18.9078 14.0703 18.631 14.0256 18.3062 14.0256H17.3318V22H14.5676ZM20.5335 17.3267L23.0789 22H20.0761L17.5903 17.3267H20.5335ZM24.7504 22.1591C24.3659 22.1591 24.0361 22.0249 23.761 21.7564C23.4893 21.4846 23.355 21.1548 23.3583 20.767C23.355 20.3892 23.4893 20.0661 23.761 19.7976C24.0361 19.5291 24.3659 19.3949 24.7504 19.3949C25.115 19.3949 25.4365 19.5291 25.7149 19.7976C25.9966 20.0661 26.1391 20.3892 26.1424 20.767C26.1391 21.0256 26.0712 21.2609 25.9386 21.473C25.8093 21.6818 25.6403 21.8492 25.4315 21.9751C25.2227 22.0978 24.9957 22.1591 24.7504 22.1591Z" fill="white"/>
</svg>
